<svg width="292" height="77" viewBox="0 0 292 77" version="1.1" xmlns="http://www.w3.org/2000/svg" xmlns:xlink="http://www.w3.org/1999/xlink">
<title>logo</title>
<desc>Created using Figma</desc>
<g id="Canvas" transform="translate(-491 603)">
<g id="logo">
<g id="ROBOTICS">
<use xlink:href="#path0_fill" transform="translate(488 -579)" fill="#FFFFFF"/>
</g>
<g id="IRVINGTON">
<use xlink:href="#path1_fill" transform="translate(488 -611)" fill="#FFFFFF"/>
</g>
</g>
</g>
<defs>
<path id="path0_fill" d="M 21.78 10C 26.7 10 30.48 11.16 33.12 13.48C 35.76 15.8 37.08 19.02 37.08 23.14C 37.08 26.06 36.4 28.56 35.04 30.64C 33.68 32.68 31.72 34.2 29.16 35.2L 37.44 50.02C 37.56 50.26 37.62 50.48 37.62 50.68C 37.62 51.04 37.48 51.36 37.2 51.64C 36.96 51.88 36.66 52 36.3 52L 31.2 52C 30.04 52 29.18 51.46 28.62 50.38L 20.76 36.4L 12.78 36.4L 12.78 50.38C 12.78 50.82 12.62 51.2 12.3 51.52C 11.98 51.84 11.6 52 11.16 52L 6.3 52C 5.86 52 5.48 51.84 5.16 51.52C 4.84 51.2 4.68 50.82 4.68 50.38L 4.68 11.62C 4.68 11.18 4.84 10.8 5.16 10.48C 5.48 10.16 5.86 10 6.3 10L 21.78 10ZM 21.48 28.9C 23.92 28.9 25.78 28.48 27.06 27.64C 28.34 26.76 28.98 25.26 28.98 23.14C 28.98 21.02 28.34 19.56 27.06 18.76C 25.82 17.92 23.96 17.5 21.48 17.5L 12.78 17.5L 12.78 28.9L 21.48 28.9ZM 61.0753 9.4C 66.6753 9.4 70.9553 10.9 73.9153 13.9C 76.8753 16.9 78.4753 20.82 78.7153 25.66C 78.7953 27.5 78.8353 29.1 78.8353 30.46C 78.8353 32.26 78.7953 34.24 78.7153 36.4C 78.4753 41.2 76.8753 45.1 73.9153 48.1C 70.9553 51.1 66.6753 52.6 61.0753 52.6C 55.4753 52.6 51.1953 51.1 48.2353 48.1C 45.2753 45.1 43.6753 41.2 43.4353 36.4C 43.3553 34.24 43.3153 32.26 43.3153 30.46C 43.3153 29.1 43.3553 27.5 43.4353 25.66C 43.6753 20.86 45.2753 16.96 48.2353 13.96C 51.1953 10.92 55.4753 9.4 61.0753 9.4ZM 61.0753 16.9C 58.2753 16.9 56.0153 17.7 54.2953 19.3C 52.6153 20.9 51.6953 23.12 51.5353 25.96C 51.4553 27.96 51.4153 29.64 51.4153 31C 51.4153 32.4 51.4553 34.1 51.5353 36.1C 51.6953 38.94 52.6153 41.16 54.2953 42.76C 56.0153 44.32 58.2753 45.1 61.0753 45.1C 63.8753 45.1 66.1153 44.32 67.7953 42.76C 69.5153 41.16 70.4553 38.94 70.6153 36.1C 70.6953 35.1 70.7353 33.4 70.7353 31C 70.7353 28.64 70.6953 26.96 70.6153 25.96C 70.4553 23.12 69.5153 20.9 67.7953 19.3C 66.1153 17.7 63.8753 16.9 61.0753 16.9ZM 88.2727 52C 87.8327 52 87.4527 51.84 87.1327 51.52C 86.8127 51.2 86.6527 50.82 86.6527 50.38L 86.6527 11.62C 86.6527 11.18 86.8127 10.8 87.1327 10.48C 87.4527 10.16 87.8327 10 88.2727 10L 105.973 10C 109.133 10 111.713 10.62 113.713 11.86C 115.753 13.1 117.213 14.62 118.093 16.42C 119.013 18.22 119.473 20.02 119.473 21.82C 119.473 23.9 119.013 25.64 118.093 27.04C 117.173 28.4 116.253 29.38 115.333 29.98C 116.773 30.94 117.953 32.22 118.873 33.82C 119.833 35.38 120.313 37.24 120.313 39.4C 120.313 41.48 119.793 43.5 118.753 45.46C 117.753 47.38 116.273 48.96 114.313 50.2C 112.353 51.4 110.033 52 107.353 52L 88.2727 52ZM 94.7527 17.5L 94.7527 26.74L 105.373 26.74C 107.413 26.74 108.913 26.36 109.873 25.6C 110.873 24.84 111.373 23.68 111.373 22.12C 111.373 20.56 110.873 19.4 109.873 18.64C 108.913 17.88 107.413 17.5 105.373 17.5L 94.7527 17.5ZM 105.853 44.5C 107.973 44.5 109.553 44.04 110.593 43.12C 111.673 42.2 112.213 40.96 112.213 39.4C 112.213 37.84 111.653 36.6 110.533 35.68C 109.453 34.72 107.893 34.24 105.853 34.24L 94.7527 34.24L 94.7527 44.5L 105.853 44.5ZM 143.985 9.4C 149.585 9.4 153.865 10.9 156.825 13.9C 159.785 16.9 161.385 20.82 161.625 25.66C 161.705 27.5 161.745 29.1 161.745 30.46C 161.745 32.26 161.705 34.24 161.625 36.4C 161.385 41.2 159.785 45.1 156.825 48.1C 153.865 51.1 149.585 52.6 143.985 52.6C 138.385 52.6 134.105 51.1 131.145 48.1C 128.185 45.1 126.585 41.2 126.345 36.4C 126.265 34.24 126.225 32.26 126.225 30.46C 126.225 29.1 126.265 27.5 126.345 25.66C 126.585 20.86 128.185 16.96 131.145 13.96C 134.105 10.92 138.385 9.4 143.985 9.4ZM 143.985 16.9C 141.185 16.9 138.925 17.7 137.205 19.3C 135.525 20.9 134.605 23.12 134.445 25.96C 134.365 27.96 134.325 29.64 134.325 31C 134.325 32.4 134.365 34.1 134.445 36.1C 134.605 38.94 135.525 41.16 137.205 42.76C 138.925 44.32 141.185 45.1 143.985 45.1C 146.785 45.1 149.025 44.32 150.705 42.76C 152.425 41.16 153.365 38.94 153.525 36.1C 153.605 35.1 153.645 33.4 153.645 31C 153.645 28.64 153.605 26.96 153.525 25.96C 153.365 23.12 152.425 20.9 150.705 19.3C 149.025 17.7 146.785 16.9 143.985 16.9ZM 196.703 10C 197.142 10 197.522 10.16 197.843 10.48C 198.162 10.8 198.322 11.18 198.322 11.62L 198.322 15.88C 198.322 16.32 198.162 16.7 197.843 17.02C 197.522 17.34 197.142 17.5 196.703 17.5L 185.902 17.5L 185.902 50.38C 185.902 50.82 185.743 51.2 185.423 51.52C 185.103 51.84 184.722 52 184.283 52L 179.423 52C 178.983 52 178.603 51.84 178.283 51.52C 177.963 51.2 177.803 50.82 177.803 50.38L 177.803 17.5L 167.002 17.5C 166.563 17.5 166.182 17.34 165.862 17.02C 165.543 16.7 165.382 16.32 165.382 15.88L 165.382 11.62C 165.382 11.18 165.543 10.8 165.862 10.48C 166.182 10.16 166.563 10 167.002 10L 196.703 10ZM 205.929 52C 205.489 52 205.109 51.84 204.789 51.52C 204.469 51.2 204.309 50.82 204.309 50.38L 204.309 11.62C 204.309 11.18 204.469 10.8 204.789 10.48C 205.109 10.16 205.489 10 205.929 10L 210.789 10C 211.229 10 211.609 10.16 211.929 10.48C 212.249 10.8 212.409 11.18 212.409 11.62L 212.409 50.38C 212.409 50.82 212.249 51.2 211.929 51.52C 211.609 51.84 211.229 52 210.789 52L 205.929 52ZM 254.17 37.12C 254.65 37.12 255.05 37.28 255.37 37.6C 255.69 37.88 255.83 38.26 255.79 38.74C 255.63 41.06 254.89 43.28 253.57 45.4C 252.29 47.52 250.33 49.26 247.69 50.62C 245.09 51.94 241.83 52.6 237.91 52.6C 232.55 52.6 228.35 51.1 225.31 48.1C 222.27 45.06 220.59 41.04 220.27 36.04C 220.19 34.04 220.15 32.36 220.15 31C 220.15 29.64 220.19 27.96 220.27 25.96C 220.59 20.96 222.27 16.96 225.31 13.96C 228.35 10.92 232.55 9.4 237.91 9.4C 241.83 9.4 245.09 10.08 247.69 11.44C 250.33 12.76 252.29 14.48 253.57 16.6C 254.89 18.72 255.63 20.94 255.79 23.26C 255.83 23.74 255.69 24.14 255.37 24.46C 255.05 24.74 254.65 24.88 254.17 24.88L 249.31 24.88C 248.91 24.88 248.53 24.74 248.17 24.46C 247.81 24.18 247.59 23.8 247.51 23.32C 247.19 21.52 246.23 20 244.63 18.76C 243.07 17.52 240.83 16.9 237.91 16.9C 234.95 16.9 232.65 17.74 231.01 19.42C 229.41 21.1 228.53 23.28 228.37 25.96C 228.29 27.96 228.25 29.64 228.25 31C 228.25 32.36 228.29 34.04 228.37 36.04C 228.53 38.72 229.41 40.9 231.01 42.58C 232.65 44.26 234.95 45.1 237.91 45.1C 240.83 45.1 243.09 44.48 244.69 43.24C 246.29 42 247.25 40.48 247.57 38.68C 247.65 38.2 247.85 37.82 248.17 37.54C 248.53 37.26 248.91 37.12 249.31 37.12L 254.17 37.12ZM 293.625 20.44C 293.665 20.92 293.525 21.32 293.205 21.64C 292.885 21.92 292.485 22.06 292.005 22.06L 287.805 22.06C 287.165 22.06 286.665 21.94 286.305 21.7C 285.945 21.46 285.625 21.1 285.345 20.62C 284.665 19.5 283.685 18.6 282.405 17.92C 281.125 17.24 279.385 16.9 277.185 16.9C 275.025 16.9 273.205 17.34 271.725 18.22C 270.245 19.1 269.505 20.28 269.505 21.76C 269.505 22.96 269.845 23.9 270.525 24.58C 271.245 25.22 272.345 25.76 273.825 26.2C 275.305 26.64 277.725 27.22 281.085 27.94C 285.925 28.98 289.425 30.44 291.585 32.32C 293.745 34.2 294.825 36.78 294.825 40.06C 294.825 42.46 294.125 44.62 292.725 46.54C 291.325 48.42 289.305 49.9 286.665 50.98C 284.065 52.06 281.005 52.6 277.485 52.6C 274.485 52.6 271.685 52.12 269.085 51.16C 266.485 50.2 264.385 48.84 262.785 47.08C 261.185 45.28 260.325 43.24 260.205 40.96C 260.165 40.48 260.305 40.1 260.625 39.82C 260.945 39.5 261.345 39.34 261.825 39.34L 266.025 39.34C 266.665 39.34 267.165 39.46 267.525 39.7C 267.925 39.94 268.245 40.3 268.485 40.78C 269.165 42.1 270.145 43.16 271.425 43.96C 272.745 44.72 274.765 45.1 277.485 45.1C 280.125 45.1 282.325 44.68 284.085 43.84C 285.845 43 286.725 41.74 286.725 40.06C 286.725 39.1 286.385 38.34 285.705 37.78C 285.025 37.18 284.065 36.7 282.825 36.34C 281.585 35.94 279.705 35.44 277.185 34.84C 276.185 34.64 274.885 34.34 273.285 33.94C 269.085 32.9 266.045 31.48 264.165 29.68C 262.325 27.88 261.405 25.24 261.405 21.76C 261.405 19.4 262.085 17.28 263.445 15.4C 264.845 13.52 266.745 12.06 269.145 11.02C 271.545 9.94 274.225 9.4 277.185 9.4C 280.545 9.4 283.445 9.98 285.885 11.14C 288.365 12.26 290.245 13.68 291.525 15.4C 292.805 17.12 293.505 18.8 293.625 20.44Z"/>
<path id="path1_fill" d="M 3.955 33C 3.69833 33 3.47667 32.9067 3.29 32.72C 3.10333 32.5333 3.01 32.3117 3.01 32.055L 3.01 9.445C 3.01 9.18833 3.10333 8.96667 3.29 8.78C 3.47667 8.59333 3.69833 8.5 3.955 8.5L 5.39 8.5C 5.64667 8.5 5.86833 8.59333 6.055 8.78C 6.24167 8.96667 6.335 9.18833 6.335 9.445L 6.335 32.055C 6.335 32.3117 6.24167 32.5333 6.055 32.72C 5.86833 32.9067 5.64667 33 5.39 33L 3.955 33ZM 21.7561 8.5C 24.2061 8.5 26.2244 9.10667 27.8111 10.32C 29.3977 11.51 30.1911 13.3183 30.1911 15.745C 30.1911 17.565 29.7361 19.0467 28.8261 20.19C 27.9161 21.3333 26.6911 22.15 25.1511 22.64L 30.4361 31.845C 30.5061 31.985 30.5411 32.1133 30.5411 32.23C 30.5411 32.44 30.4594 32.6267 30.2961 32.79C 30.1561 32.93 29.9811 33 29.7711 33L 28.2661 33C 27.6127 33 27.1111 32.685 26.7611 32.055L 21.6861 23.13L 15.6661 23.13L 15.6661 32.055C 15.6661 32.3117 15.5727 32.5333 15.3861 32.72C 15.1994 32.9067 14.9777 33 14.7211 33L 13.2861 33C 13.0294 33 12.8077 32.9067 12.6211 32.72C 12.4344 32.5333 12.3411 32.3117 12.3411 32.055L 12.3411 9.445C 12.3411 9.18833 12.4344 8.96667 12.6211 8.78C 12.8077 8.59333 13.0294 8.5 13.2861 8.5L 21.7561 8.5ZM 21.5811 19.98C 25.1044 19.98 26.8661 18.5683 26.8661 15.745C 26.8661 14.2983 26.4227 13.26 25.5361 12.63C 24.6494 11.9767 23.3311 11.65 21.5811 11.65L 15.6661 11.65L 15.6661 19.98L 21.5811 19.98ZM 49.4028 9.375C 49.6128 8.79167 50.0678 8.5 50.7678 8.5L 52.0628 8.5C 52.2728 8.5 52.4478 8.58167 52.5878 8.745C 52.7511 8.885 52.8328 9.06 52.8328 9.27C 52.8328 9.38667 52.8094 9.50333 52.7628 9.62L 45.2028 31.6C 45.0628 32.0433 44.8294 32.3933 44.5028 32.65C 44.1994 32.8833 43.8144 33 43.3478 33L 41.9478 33C 41.0378 33 40.4311 32.5333 40.1278 31.6L 32.5328 9.62C 32.4861 9.50333 32.4628 9.38667 32.4628 9.27C 32.4628 9.06 32.5328 8.885 32.6728 8.745C 32.8361 8.58167 33.0228 8.5 33.2328 8.5L 34.5278 8.5C 35.2278 8.5 35.6828 8.79167 35.8928 9.375L 42.6478 29.5L 49.4028 9.375ZM 57.9589 33C 57.7022 33 57.4806 32.9067 57.2939 32.72C 57.1072 32.5333 57.0139 32.3117 57.0139 32.055L 57.0139 9.445C 57.0139 9.18833 57.1072 8.96667 57.2939 8.78C 57.4806 8.59333 57.7022 8.5 57.9589 8.5L 59.3939 8.5C 59.6506 8.5 59.8722 8.59333 60.0589 8.78C 60.2456 8.96667 60.3389 9.18833 60.3389 9.445L 60.3389 32.055C 60.3389 32.3117 60.2456 32.5333 60.0589 32.72C 59.8722 32.9067 59.6506 33 59.3939 33L 57.9589 33ZM 82.445 33C 82.1416 33 81.885 32.9067 81.675 32.72C 81.465 32.5333 81.255 32.2767 81.045 31.95L 69.67 14.835L 69.67 32.055C 69.67 32.3117 69.5766 32.5333 69.39 32.72C 69.2033 32.9067 68.9816 33 68.725 33L 67.29 33C 67.0333 33 66.8116 32.9067 66.625 32.72C 66.4383 32.5333 66.345 32.3117 66.345 32.055L 66.345 9.445C 66.345 9.18833 66.4383 8.96667 66.625 8.78C 66.8116 8.59333 67.0333 8.5 67.29 8.5L 68.515 8.5C 68.8183 8.5 69.075 8.59333 69.285 8.78C 69.495 8.96667 69.705 9.22333 69.915 9.55L 81.29 26.665L 81.29 9.445C 81.29 9.18833 81.3833 8.96667 81.57 8.78C 81.7566 8.59333 81.9783 8.5 82.235 8.5L 83.67 8.5C 83.9266 8.5 84.1483 8.59333 84.335 8.78C 84.5216 8.96667 84.615 9.18833 84.615 9.445L 84.615 32.055C 84.615 32.3117 84.5216 32.5333 84.335 32.72C 84.1483 32.9067 83.9266 33 83.67 33L 82.445 33ZM 99.7467 8.15C 101.73 8.15 103.445 8.52333 104.892 9.27C 106.338 9.99333 107.435 10.8917 108.182 11.965C 108.952 13.015 109.36 13.995 109.407 14.905C 109.43 15.115 109.36 15.3017 109.197 15.465C 109.033 15.605 108.847 15.675 108.637 15.675L 107.202 15.675C 106.665 15.675 106.327 15.5467 106.187 15.29C 105.51 13.9833 104.693 12.9917 103.737 12.315C 102.803 11.6383 101.473 11.3 99.7467 11.3C 97.7867 11.3 96.2001 11.86 94.9867 12.98C 93.7734 14.0767 93.1317 15.6633 93.0617 17.74C 93.0384 18.44 93.0267 19.4083 93.0267 20.645C 93.0267 21.8817 93.0384 22.85 93.0617 23.55C 93.1317 25.7433 93.7617 27.4 94.9517 28.52C 96.1651 29.64 97.7634 30.2 99.7467 30.2C 101.777 30.2 103.398 29.675 104.612 28.625C 105.825 27.5517 106.432 25.8717 106.432 23.585L 106.432 22.605L 101.392 22.605C 101.135 22.605 100.913 22.5117 100.727 22.325C 100.54 22.1383 100.447 21.9167 100.447 21.66L 100.447 20.4C 100.447 20.1433 100.54 19.9217 100.727 19.735C 100.913 19.5483 101.135 19.455 101.392 19.455L 108.812 19.455C 109.068 19.455 109.29 19.5483 109.477 19.735C 109.663 19.9217 109.757 20.1433 109.757 20.4L 109.757 23.725C 109.757 25.5917 109.36 27.26 108.567 28.73C 107.773 30.1767 106.618 31.3083 105.102 32.125C 103.608 32.9417 101.823 33.35 99.7467 33.35C 96.5267 33.35 94.0767 32.4633 92.3967 30.69C 90.7167 28.8933 89.8301 26.5717 89.7367 23.725C 89.7134 23.025 89.7017 21.9983 89.7017 20.645C 89.7017 19.2917 89.7134 18.265 89.7367 17.565C 89.8067 15.7683 90.2034 14.17 90.9267 12.77C 91.6734 11.3467 92.7817 10.2267 94.2517 9.41C 95.7451 8.57 97.5767 8.15 99.7467 8.15ZM 129.386 8.5C 129.642 8.5 129.864 8.59333 130.051 8.78C 130.237 8.96667 130.331 9.18833 130.331 9.445L 130.331 10.705C 130.331 10.9617 130.237 11.1833 130.051 11.37C 129.864 11.5567 129.642 11.65 129.386 11.65L 122.841 11.65L 122.841 32.055C 122.841 32.3117 122.747 32.5333 122.561 32.72C 122.374 32.9067 122.152 33 121.896 33L 120.461 33C 120.204 33 119.982 32.9067 119.796 32.72C 119.609 32.5333 119.516 32.3117 119.516 32.055L 119.516 11.65L 112.971 11.65C 112.714 11.65 112.492 11.5567 112.306 11.37C 112.119 11.1833 112.026 10.9617 112.026 10.705L 112.026 9.445C 112.026 9.18833 112.119 8.96667 112.306 8.78C 112.492 8.59333 112.714 8.5 112.971 8.5L 129.386 8.5ZM 142.326 8.15C 144.31 8.15 146.025 8.57 147.471 9.41C 148.918 10.25 150.015 11.3933 150.761 12.84C 151.531 14.2633 151.94 15.8617 151.986 17.635C 152.033 19.035 152.056 20.0733 152.056 20.75C 152.056 21.4267 152.033 22.465 151.986 23.865C 151.916 25.6383 151.496 27.2483 150.726 28.695C 149.98 30.1183 148.883 31.25 147.436 32.09C 146.013 32.93 144.31 33.35 142.326 33.35C 140.343 33.35 138.628 32.93 137.181 32.09C 135.758 31.25 134.661 30.1183 133.891 28.695C 133.145 27.2483 132.736 25.6383 132.666 23.865C 132.643 23.165 132.631 22.1267 132.631 20.75C 132.631 19.3733 132.643 18.335 132.666 17.635C 132.713 15.8617 133.11 14.2633 133.856 12.84C 134.626 11.3933 135.735 10.25 137.181 9.41C 138.628 8.57 140.343 8.15 142.326 8.15ZM 142.326 11.3C 140.46 11.3 138.955 11.8483 137.811 12.945C 136.668 14.0417 136.061 15.6633 135.991 17.81C 135.968 18.51 135.956 19.49 135.956 20.75C 135.956 22.01 135.968 22.99 135.991 23.69C 136.061 25.8367 136.668 27.4583 137.811 28.555C 138.955 29.6517 140.46 30.2 142.326 30.2C 144.193 30.2 145.698 29.6517 146.841 28.555C 147.985 27.4583 148.591 25.8367 148.661 23.69C 148.708 22.29 148.731 21.31 148.731 20.75C 148.731 20.19 148.708 19.21 148.661 17.81C 148.591 15.6633 147.985 14.0417 146.841 12.945C 145.698 11.8483 144.193 11.3 142.326 11.3ZM 173.192 33C 172.889 33 172.632 32.9067 172.422 32.72C 172.212 32.5333 172.002 32.2767 171.792 31.95L 160.417 14.835L 160.417 32.055C 160.417 32.3117 160.324 32.5333 160.137 32.72C 159.95 32.9067 159.729 33 159.472 33L 158.037 33C 157.78 33 157.559 32.9067 157.372 32.72C 157.185 32.5333 157.092 32.3117 157.092 32.055L 157.092 9.445C 157.092 9.18833 157.185 8.96667 157.372 8.78C 157.559 8.59333 157.78 8.5 158.037 8.5L 159.262 8.5C 159.565 8.5 159.822 8.59333 160.032 8.78C 160.242 8.96667 160.452 9.22333 160.662 9.55L 172.037 26.665L 172.037 9.445C 172.037 9.18833 172.13 8.96667 172.317 8.78C 172.504 8.59333 172.725 8.5 172.982 8.5L 174.417 8.5C 174.674 8.5 174.895 8.59333 175.082 8.78C 175.269 8.96667 175.362 9.18833 175.362 9.445L 175.362 32.055C 175.362 32.3117 175.269 32.5333 175.082 32.72C 174.895 32.9067 174.674 33 174.417 33L 173.192 33Z"/>
</defs>
</svg>