<svg width="765" height="158" viewBox="0 0 765 158" fill="none" xmlns="http://www.w3.org/2000/svg">
<path d="M435.026 62.9007C435.041 63.4235 434.803 64.0901 434.352 64.4491C433.886 64.8192 433.382 64.8928 432.894 64.8928H430.368L410.874 20.724L405.793 44.388C405.496 46.4692 403.83 47.885 401.86 47.7735H398.578L383.196 20.9759L383.343 62.7714C383.358 63.331 383.137 64.0154 382.647 64.4012C382.166 64.7969 381.633 64.8928 381.092 64.8928H377.804V14.6876H381.995V14.6956C382.017 14.6956 382.054 14.6876 382.084 14.6876C383.314 14.6731 384.425 14.9763 385.335 15.644C386.165 16.236 386.875 17.0653 387.506 18.0586L400.978 42.0838L406.593 14.6876H410.184C412.474 14.6876 414.392 16.0219 415.399 18.2949L434.766 61.8528C434.9 62.2118 435.012 62.4459 435.026 62.9007ZM611.591 64.8928H590.874C581.195 64.8705 580.173 56.9278 580.128 53.18C580.128 49.2327 582.994 46.0991 584.415 44.8183L598.526 31.0042C600.2 29.36 601.014 27.4125 601.014 25.6122C601.014 22.5466 598.673 20.0507 594.896 20.0652C594.889 20.0429 576.64 20.0273 576.468 19.9838C575.869 19.8801 575.24 19.0942 575.254 18.4655H575.203L575.254 18.4421C575.254 18.4287 575.254 15.391 575.254 14.6731H595.763C605.451 14.7099 606.473 22.6425 606.518 26.3903C606.518 26.4048 606.51 26.4048 606.51 26.4204C606.518 31.6118 601.747 35.6193 601.711 35.6327L588.335 48.8024C586.66 50.4478 585.63 52.1433 585.623 53.9581C585.631 57.0315 587.971 59.5163 591.727 59.5163C591.748 59.5233 610.221 59.5386 610.369 59.5865L610.42 59.4494L610.376 59.5865C610.977 59.7013 611.621 60.4861 611.599 61.1082C611.599 61.1082 611.591 61.1162 611.599 61.126C611.599 61.1572 611.591 64.1827 611.591 64.8928H611.591ZM463.712 59.8608C454.505 60.368 443.981 54.9425 440.359 40.308C436.797 25.9533 443.454 18.9916 452.484 17.8212L453.425 17.7766C462.734 17.2872 472.652 22.7238 476.139 37.3594C479.539 51.713 472.866 58.9277 463.712 59.8608ZM481.524 36.9225C478.133 22.6503 467.852 11.3913 451.425 12.6509V12.6665C436.152 14.429 431.776 27.8651 434.996 40.7516C438.56 55.0015 448.802 66.2673 464.986 65.0154V65.0009C480.066 63.2418 484.569 49.7878 481.525 36.9225H481.524ZM572.951 64.4156C572.529 64.7333 572.048 64.7969 571.573 64.8047H569.122L543.28 42.7069L546.717 62.2341C546.932 63.3154 546.407 64.0522 545.969 64.3633C545.509 64.7122 544.939 64.8928 544.391 64.8928H541.903L532.57 14.6876H538.096L542.185 36.908L562.641 14.6731H565.092C565.582 14.6876 566.049 14.7545 566.463 15.0733C566.893 15.3698 567.122 15.9617 567.1 16.4433C567.1 17.3463 566.366 18.2514 566.366 18.2514L547.007 39.2857L572.854 61.2375C572.854 61.2375 573.581 61.8606 573.581 63.0534C573.588 63.5305 573.373 64.108 572.951 64.4156ZM521.068 57.269C520.061 58.2488 518.52 58.7193 516.135 59.1685C515.514 59.2822 514.491 59.3747 513.329 59.4349C510.455 59.5932 501.915 59.4639 499.301 59.4429L495.99 41.181C497.96 41.152 500.211 41.1219 501.797 41.1075C506.262 41.1075 510.588 41.2546 513.64 42.084C521.505 44.2187 525.408 53.1356 521.068 57.2692V57.269ZM526.142 60.3046C528.379 57.7652 528.541 53.0476 527.904 50.1436C527.135 46.5954 523.756 37.6406 511.107 36.508L521.764 18.2516C521.764 18.2516 522.491 17.1547 522.491 16.4435C522.498 15.9619 522.29 15.37 521.853 15.0735C521.431 14.7547 520.971 14.6733 520.491 14.6733H517.675L505.181 36.2115L495.116 36.256L491.205 14.6733H485.679L495.019 64.893H507.921C515.543 64.893 522.231 64.7826 526.142 60.3046ZM154.829 54.1724C154.2 50.128 155.444 45.3803 159.947 42.2322L175.997 31.0334C177.678 29.8718 178.516 29.0648 178.308 27.7092C178.004 25.8342 177.026 25.0795 173.701 25.0795H155.029C153.037 25.0795 151.956 24.1019 151.592 21.8501V14.8884H173.457C183.04 14.8884 187.781 20.5469 188.737 26.5465C189.632 32.2039 187.737 36.2349 184.093 38.84L167.027 50.9429C165.657 51.9217 165.317 52.44 165.413 53.1802C165.569 54.4098 166.687 54.9126 168.634 54.9126H188.121C190.507 54.9126 191.861 57.3505 192.239 59.7606V65.1081H166.472C160.754 65.1081 155.755 59.9936 154.829 54.1724ZM349.11 65.1159H322.076L321.943 64.3044C321.313 60.8977 321.595 56.9425 326.988 56.9425H347.007C354.932 56.9425 357.969 51.2094 355.998 40.4564C354.206 30.5897 348.888 23.0652 340.815 23.0652H329.965L335.112 51.2985H325.883C324.639 51.2985 323.78 50.4023 323.64 49.5952L317.307 14.9029H338.474C354.103 14.9029 365.005 22.257 368.382 40.8109C370.989 55.0764 365.049 65.1159 349.11 65.1159ZM284.94 23.0495H263.601L270.971 63.4014C271.112 64.2118 270.512 65.1081 269.512 65.1081H260.12L250.951 14.9029H286.303L287.213 19.9104C287.621 22.1611 286.865 23.0495 284.94 23.0495ZM311.529 65.1159H302.139L292.969 14.9029H304.131L312.988 63.4081C313.145 64.2196 312.537 65.1159 311.529 65.1159ZM224.694 56.5055C214.511 56.5055 209.171 50.5873 207.26 38.9292C205.349 27.2577 208.734 21.354 218.925 21.354C229.109 21.354 234.442 27.2577 236.352 38.9292C238.271 50.5873 234.879 56.5055 224.694 56.5055ZM247.441 38.9292C245.093 24.6793 235.449 12.7403 217.511 12.7403C199.558 12.7403 193.832 24.6793 196.18 38.9292C198.513 53.1802 208.171 65.1081 226.109 65.1081C244.049 65.1081 249.781 53.1802 247.441 38.9292ZM116.989 82.6029C106.316 84.3575 87.244 85.0319 80.7194 75.037C75.6829 67.3151 85.2074 56.735 93.8735 46.4848C100.821 38.278 108.383 30.4413 105.294 25.8574C102.776 22.1163 86.6153 22.1163 81.0449 21.8209C74.2906 21.4642 64.551 21.4508 62.8543 20.5166C61.3293 19.7017 60.4766 17.1545 66.1952 16.1323C70.7947 15.3029 81.7416 13.6286 93.2804 13.6286C105.331 13.6286 117.989 15.6128 120.737 24.9467C122.944 32.4333 115.3 40.4696 108.56 48.6095C101.206 57.5354 93.7475 63.8861 94.3773 70.2034C94.8511 75.1184 104.494 75.3993 120.477 75.6813C123.804 75.7404 130.432 75.8998 129.15 78.5251C128.011 80.8438 123.056 81.6096 116.989 82.6029ZM67.8094 60.3602C60.9659 65.0555 48.7672 66.6229 38.7311 66.1012C29.784 65.6307 14.416 62.7859 14.9857 59.9566C15.5341 56.8989 25.2659 57.8453 29.725 57.8453C39.5314 57.8453 55.0923 57.2533 57.5448 50.9282C62.832 37.3149 26.9849 12.8728 19.341 15.2293C15.8819 16.2806 26.3629 34.0497 30.1619 40.4406C32.4282 44.2475 35.865 50.2471 32.9321 50.6462C29.6514 51.1055 26.0295 45.4626 23.6819 42.2109C17.3044 33.3742 10.7719 23.7316 5.5281 13.8136C3.91282 10.7547 -1.46364 1.54133 0.380164 0.341832C2.1058 -0.761768 10.3048 0.815633 20.7333 4.94803C53.5071 17.9248 68.2687 34.8401 72.2238 48.8102C73.6095 53.7285 71.2161 58.0236 67.8094 60.3602ZM43.4721 120.043C42.7899 122.246 53.7301 125.116 65.7215 125.645C77.801 126.175 92.0876 123.772 94.7619 115.803C99.124 102.741 77.0084 83.6953 57.7298 74.337C52.9966 72.0473 50.1372 71.4185 48.9377 71.5779C47.804 71.7295 47.6268 72.7886 47.9969 73.5187C48.678 74.8921 51.796 77.6879 55.9518 80.7323C77.6527 96.5819 84.7035 108.21 80.6079 112.918C77.9793 115.939 66.98 118.039 55.5594 118.039C52.4559 118.039 44.3093 117.361 43.4721 120.043Z" transform="translate(0 157.143) scale(1.25 -1.25)" fill="#EE2722"/>
</svg>
