<svg width="3435" height="356" viewBox="0 0 3435 356" fill="none" xmlns="http://www.w3.org/2000/svg">
<path fill-rule="evenodd" clip-rule="evenodd" d="M1794.81 186.651V293.999H1848.01V204.399H1886.16L1928.86 293.999H1988.01L1940.06 198.099C1955 192.499 1966.08 183.515 1973.31 171.149C1980.78 158.782 1984.51 144.315 1984.51 127.749C1984.51 116.082 1982.76 105.465 1979.26 95.8988C1975.76 86.3321 1970.75 78.1655 1964.21 71.3988C1957.91 64.3988 1950.21 59.0321 1941.11 55.2988C1932.01 51.5655 1921.86 49.6988 1910.66 49.6988H1850.7L1794.81 186.651ZM1922.56 153.649C1918.13 157.615 1911.95 159.599 1904.01 159.599H1848.01V95.8988H1904.01C1911.95 95.8988 1918.13 97.9988 1922.56 102.199C1927.23 106.165 1929.56 112.115 1929.56 120.049V135.449C1929.56 143.382 1927.23 149.449 1922.56 153.649Z" fill="white"/>
<path fill-rule="evenodd" clip-rule="evenodd" d="M2070.63 290.149C2083.93 295.515 2098.63 298.199 2114.73 298.199C2130.83 298.199 2145.53 295.515 2158.83 290.149C2172.14 284.782 2183.45 276.849 2192.78 266.349C2202.12 255.615 2209.35 242.432 2214.48 226.799C2219.62 210.932 2222.18 192.615 2222.18 171.849C2222.18 151.082 2219.62 132.882 2214.48 117.249C2209.35 101.382 2202.12 88.1988 2192.78 77.6988C2183.45 66.9655 2172.14 58.9155 2158.83 53.5488C2145.53 48.1821 2130.83 45.4988 2114.73 45.4988C2098.63 45.4988 2083.93 48.1821 2070.63 53.5488C2057.33 58.9155 2046.02 66.9655 2036.68 77.6988C2027.35 88.1988 2020.12 101.382 2014.98 117.249C2009.85 132.882 2007.28 151.082 2007.28 171.849C2007.28 192.615 2009.85 210.932 2014.98 226.799C2020.12 242.432 2027.35 255.615 2036.68 266.349C2046.02 276.849 2057.33 284.782 2070.63 290.149ZM2152.18 235.199C2143.32 245.699 2130.83 250.949 2114.73 250.949C2098.63 250.949 2086.03 245.699 2076.93 235.199C2068.07 224.699 2063.63 209.649 2063.63 190.049V153.649C2063.63 134.049 2068.07 118.999 2076.93 108.499C2086.03 97.9988 2098.63 92.7488 2114.73 92.7488C2130.83 92.7488 2143.32 97.9988 2152.18 108.499C2161.28 118.999 2165.83 134.049 2165.83 153.649V190.049C2165.83 209.649 2161.28 224.699 2152.18 235.199Z" fill="white"/>
<path fill-rule="evenodd" clip-rule="evenodd" d="M2374.74 49.6988H2256.09V293.999H2385.59C2394.69 293.999 2403.09 292.249 2410.79 288.749C2418.49 285.015 2425.14 279.999 2430.74 273.699C2436.34 267.399 2440.66 260.049 2443.69 251.649C2446.96 243.015 2448.59 233.915 2448.59 224.349C2448.59 213.849 2446.72 204.982 2442.99 197.749C2439.49 190.515 2435.06 184.682 2429.69 180.249C2424.32 175.582 2418.37 172.199 2411.84 170.099C2405.54 167.999 2399.47 166.949 2393.64 166.949V164.849C2399.94 164.615 2405.77 163.565 2411.14 161.699C2416.74 159.599 2421.52 156.449 2425.49 152.249C2429.69 148.049 2432.96 142.682 2435.29 136.149C2437.85 129.615 2439.14 121.682 2439.14 112.349C2439.14 93.4488 2433.42 78.2821 2421.99 66.8488C2410.79 55.4155 2395.04 49.6988 2374.74 49.6988ZM2370.54 249.199H2309.29V193.199H2370.54C2377.54 193.199 2383.02 195.182 2386.99 199.149C2391.19 202.882 2393.29 208.249 2393.29 215.249V227.149C2393.29 234.149 2391.19 239.632 2386.99 243.599C2383.02 247.332 2377.54 249.199 2370.54 249.199ZM2362.14 149.799H2309.29V94.4988H2362.14C2369.14 94.4988 2374.62 96.4821 2378.59 100.449C2382.56 104.415 2384.54 109.899 2384.54 116.899V127.399C2384.54 134.399 2382.56 139.882 2378.59 143.849C2374.62 147.815 2369.14 149.799 2362.14 149.799Z" fill="white"/>
<path fill-rule="evenodd" clip-rule="evenodd" d="M2532.94 290.149C2546.24 295.515 2560.94 298.199 2577.04 298.199C2593.14 298.199 2607.84 295.515 2621.14 290.149C2634.44 284.782 2645.75 276.849 2655.09 266.349C2664.42 255.615 2671.65 242.432 2676.79 226.799C2681.92 210.932 2684.49 192.615 2684.49 171.849C2684.49 151.082 2681.92 132.882 2676.79 117.249C2671.65 101.382 2664.42 88.1988 2655.09 77.6988C2645.75 66.9655 2634.44 58.9155 2621.14 53.5488C2607.84 48.1821 2593.14 45.4988 2577.04 45.4988C2560.94 45.4988 2546.24 48.1821 2532.94 53.5488C2519.64 58.9155 2508.32 66.9655 2498.99 77.6988C2489.65 88.1988 2482.42 101.382 2477.29 117.249C2472.15 132.882 2469.59 151.082 2469.59 171.849C2469.59 192.615 2472.15 210.932 2477.29 226.799C2482.42 242.432 2489.65 255.615 2498.99 266.349C2508.32 276.849 2519.64 284.782 2532.94 290.149ZM2614.49 235.199C2605.62 245.699 2593.14 250.949 2577.04 250.949C2560.94 250.949 2548.34 245.699 2539.24 235.199C2530.37 224.699 2525.94 209.649 2525.94 190.049V153.649C2525.94 134.049 2530.37 118.999 2539.24 108.499C2548.34 97.9988 2560.94 92.7488 2577.04 92.7488C2593.14 92.7488 2605.62 97.9988 2614.49 108.499C2623.59 118.999 2628.14 134.049 2628.14 153.649V190.049C2628.14 209.649 2623.59 224.699 2614.49 235.199Z" fill="white"/>
<path d="M2811.35 293.999V96.9488H2877.5V49.6988H2692V96.9488H2758.15V293.999H2811.35Z" fill="white"/>
<path d="M2892.58 251.649V293.999H3008.78V251.649H2977.28V92.0488H3008.78V49.6988H2892.58V92.0488H2924.08V251.649H2892.58Z" fill="white"/>
<path d="M3096.5 290.499C3109.8 295.632 3124.74 298.199 3141.3 298.199C3163.94 298.199 3182.6 293.182 3197.3 283.149C3212.24 272.882 3224.25 258.415 3233.35 239.749L3189.95 214.549C3186.22 224.582 3180.39 233.215 3172.45 240.449C3164.75 247.449 3154.37 250.949 3141.3 250.949C3125.67 250.949 3113.07 245.932 3103.5 235.899C3094.17 225.632 3089.5 210.815 3089.5 191.449V152.249C3089.5 132.882 3094.17 118.182 3103.5 108.149C3113.07 97.8821 3125.67 92.7488 3141.3 92.7488C3154.6 92.7488 3164.64 95.8988 3171.4 102.199C3178.4 108.265 3183.54 116.432 3186.8 126.699L3232.65 102.899C3223.79 83.0655 3212 68.5988 3197.3 59.4988C3182.6 50.1655 3163.94 45.4988 3141.3 45.4988C3124.74 45.4988 3109.8 48.2988 3096.5 53.8988C3083.2 59.4988 3071.89 67.7821 3062.55 78.7488C3053.22 89.4821 3045.99 102.899 3040.85 118.999C3035.72 134.865 3033.15 153.065 3033.15 173.599C3033.15 194.365 3035.72 212.565 3040.85 228.199C3045.99 243.599 3053.22 256.549 3062.55 267.049C3071.89 277.315 3083.2 285.132 3096.5 290.499Z" fill="white"/>
<path d="M3284.58 287.349C3299.52 294.582 3317.72 298.199 3339.18 298.199C3354.35 298.199 3367.88 296.332 3379.78 292.599C3391.68 288.632 3401.6 283.149 3409.53 276.149C3417.7 269.149 3423.88 260.749 3428.08 250.949C3432.28 241.149 3434.38 230.415 3434.38 218.749C3434.38 197.515 3428.32 181.182 3416.18 169.749C3404.05 158.082 3385.38 150.265 3360.18 146.299L3336.03 142.449C3325.77 140.815 3318.3 138.132 3313.63 134.399C3309.2 130.665 3306.98 124.599 3306.98 116.199C3306.98 108.732 3309.9 102.899 3315.73 98.6988C3321.57 94.4988 3330.43 92.3988 3342.33 92.3988C3354.93 92.3988 3365.32 94.6155 3373.48 99.0488C3381.88 103.249 3389 108.732 3394.83 115.499L3430.18 79.7988C3420.15 68.5988 3408.13 60.0821 3394.13 54.2488C3380.13 48.4155 3363.92 45.4988 3345.48 45.4988C3331.02 45.4988 3318.07 47.3655 3306.63 51.0988C3295.43 54.5988 3285.87 59.6155 3277.93 66.1488C3270.23 72.6821 3264.28 80.4988 3260.08 89.5988C3255.88 98.6988 3253.78 108.732 3253.78 119.699C3253.78 140.232 3259.73 156.682 3271.63 169.049C3283.77 181.415 3302.78 189.232 3328.68 192.499L3352.83 195.649C3364.27 197.282 3371.85 200.432 3375.58 205.099C3379.32 209.532 3381.18 215.132 3381.18 221.899C3381.18 230.765 3378.03 237.882 3371.73 243.249C3365.43 248.615 3355.75 251.299 3342.68 251.299C3318.42 251.299 3298 241.965 3281.43 223.299L3246.43 258.649C3256.93 270.315 3269.65 279.882 3284.58 287.349Z" fill="white"/>
<path d="M1708.7 162.415V49.6981H1688.4V212.161L1708.7 162.415Z" fill="white"/>
<path d="M1675.11 244.743L1558.9 49.6981H1532.65V293.998H1552.95V78.3981H1554L1666.16 266.658L1675.11 244.743Z" fill="white"/>
<path d="M0 276.498V293.998H92.4V276.498H56.7V67.1981H92.4V49.6981H0V67.1981H35.7V276.498H0Z" fill="white"/>
<path fill-rule="evenodd" clip-rule="evenodd" d="M138.477 293.998H159.477V185.848H224.227L282.677 293.998H306.127L245.927 184.448C263.427 182.115 276.727 175.115 285.827 163.448C295.16 151.781 299.827 136.498 299.827 117.598C299.827 96.1315 294.11 79.4481 282.677 67.5481C271.477 55.6481 255.377 49.6981 234.377 49.6981H138.477V293.998ZM266.227 156.448C258.994 164.148 248.377 167.998 234.377 167.998H159.477V68.2481H234.377C248.377 68.2481 258.994 72.2148 266.227 80.1481C273.694 87.8481 277.427 97.6481 277.427 109.548V126.348C277.427 138.481 273.694 148.515 266.227 156.448Z" fill="white"/>
<path d="M316.717 49.6981L398.617 293.998H425.217L507.817 49.6981H485.767L412.967 272.648H411.567L339.467 49.6981H316.717Z" fill="white"/>
<path d="M527.68 276.498V293.998H620.08V276.498H584.38V67.1981H620.08V49.6981H527.68V67.1981H563.38V276.498H527.68Z" fill="white"/>
<path d="M686.457 78.3981H687.507L815.957 293.998H842.207V49.6981H821.907V265.298H820.857L692.407 49.6981H666.157V293.998H686.457V78.3981Z" fill="white"/>
<path d="M1058.92 256.548H1059.97V293.998H1079.57V172.198H1001.87V190.398H1058.92V219.798C1058.92 229.831 1057.05 238.581 1053.32 246.048C1049.82 253.515 1044.92 259.698 1038.62 264.598C1032.32 269.498 1024.97 273.231 1016.57 275.798C1008.4 278.131 999.65 279.298 990.317 279.298C965.583 279.298 946.1 271.248 931.867 255.148C917.867 238.815 910.867 215.948 910.867 186.548V156.798C910.867 142.331 912.617 129.381 916.117 117.948C919.85 106.515 925.1 96.8315 931.867 88.8981C938.633 80.9648 946.8 74.8981 956.367 70.6981C965.933 66.4981 976.667 64.3981 988.567 64.3981C1004.67 64.3981 1018.55 68.2481 1030.22 75.9481C1041.88 83.6481 1050.75 94.2648 1056.82 107.798L1073.97 97.6481C1066.5 82.0148 1055.65 69.4148 1041.42 59.8481C1027.18 50.2815 1009.57 45.4981 988.567 45.4981C973.167 45.4981 959.283 48.2981 946.917 53.8981C934.55 59.2648 924.05 67.3148 915.417 78.0481C906.783 88.5481 900.133 101.731 895.467 117.598C890.8 133.231 888.467 151.315 888.467 171.848C888.467 192.615 890.8 210.815 895.467 226.448C900.133 242.081 906.667 255.265 915.067 265.998C923.7 276.731 934.083 284.781 946.217 290.148C958.35 295.515 972 298.198 987.167 298.198C1006.07 298.198 1021.58 294.465 1033.72 286.998C1046.08 279.298 1054.48 269.148 1058.92 256.548Z" fill="white"/>
<path d="M1192.09 293.998V68.2481H1273.99V49.6981H1089.19V68.2481H1171.09V293.998H1192.09Z" fill="white"/>
<path fill-rule="evenodd" clip-rule="evenodd" d="M1313.11 266.348C1330.84 287.581 1355.34 298.198 1386.61 298.198C1417.64 298.198 1442.03 287.465 1459.76 265.998C1477.49 244.531 1486.36 213.148 1486.36 171.848C1486.36 130.548 1477.49 99.1648 1459.76 77.6981C1442.03 56.2315 1417.64 45.4981 1386.61 45.4981C1355.34 45.4981 1330.84 56.2315 1313.11 77.6981C1295.38 98.9315 1286.51 130.315 1286.51 171.848C1286.51 213.381 1295.38 244.881 1313.11 266.348ZM1418.11 273.348C1408.78 277.315 1398.28 279.298 1386.61 279.298C1374.94 279.298 1364.33 277.315 1354.76 273.348C1345.19 269.148 1337.03 263.081 1330.26 255.148C1323.49 247.215 1318.24 237.531 1314.51 226.098C1310.78 214.665 1308.91 201.715 1308.91 187.248V156.448C1308.91 141.981 1310.78 129.031 1314.51 117.598C1318.24 106.165 1323.49 96.5981 1330.26 88.8981C1337.03 80.9648 1345.19 74.8981 1354.76 70.6981C1364.33 66.4981 1374.94 64.3981 1386.61 64.3981C1398.28 64.3981 1408.78 66.4981 1418.11 70.6981C1427.68 74.8981 1435.84 80.9648 1442.61 88.8981C1449.38 96.5981 1454.63 106.165 1458.36 117.598C1462.09 129.031 1463.96 141.981 1463.96 156.448V187.248C1463.96 201.715 1462.09 214.665 1458.36 226.098C1454.63 237.531 1449.38 247.215 1442.61 255.148C1435.84 263.081 1427.68 269.148 1418.11 273.348Z" fill="white"/>
<path d="M1672.54 356L1816.65 0H1843.56L1699.45 356H1672.54Z" fill="white"/>
</svg>
